<svg xmlns="http://www.w3.org/2000/svg" width="1912" height="426" viewBox="0 0 1912 426" font-family="'BIZ UDPGothic', 'Yu Gothic UI', 'Meiryo UI', sans-serif">
<defs><filter id="shadow" x="-5%" y="-5%" width="110%" height="120%"><feGaussianBlur in="SourceAlpha" stdDeviation="3" result="blur"/><feOffset in="blur" dx="0" dy="2" result="off"/><feFlood flood-color="#1b1f2a" flood-opacity="0.10" result="col"/><feComposite in="col" in2="off" operator="in" result="sh"/><feMerge><feMergeNode in="sh"/><feMergeNode in="SourceGraphic"/></feMerge></filter><marker id="arrow" markerWidth="8" markerHeight="8" refX="7" refY="4" orient="auto" markerUnits="userSpaceOnUse"><path d="M0,0.5 L7,4 L0,7.5" fill="none" stroke="#5b6272" stroke-width="1.6" stroke-linecap="round" stroke-linejoin="round"/></marker></defs>
<rect width="1912" height="426" fill="#f5f6fa"/>
<text x="36" y="48" font-size="24" font-weight="bold" fill="#1b1f2a">組み立ての流れ — 宣言を検査する → 問いと行を突き合わせる → 版を焼く → 2 回組み立てて返す</text>
<text x="36" y="74" font-size="14" fill="#5b6272">橙のピルが関所。要約して短くする経路・黙って切り詰める経路・表全体を貼る経路はこの図に無い(関数にも CLI にも引数が無い)</text>
<rect x="36" y="118" width="260" height="172" rx="14" fill="#ffffff" stroke="#d9dce6" stroke-width="1" filter="url(#shadow)"/>
<rect x="36" y="118" width="260" height="6" rx="3" fill="#e7ecfb"/>
<circle cx="62" cy="152" r="14" fill="#3b5bdb"/>
<text x="62" y="157" font-size="14" font-weight="bold" text-anchor="middle" fill="#ffffff">1</text>
<text x="84" y="158" font-size="17" font-weight="bold" text-anchor="start" fill="#1b1f2a">2 つを読む</text>
<circle cx="60" cy="189" r="2.5" fill="#3b5bdb"/>
<text x="72" y="194" font-size="14" font-weight="normal" text-anchor="start" fill="#1b1f2a">引いた行は前の工程から</text>
<circle cx="60" cy="213" r="2.5" fill="#3b5bdb"/>
<text x="72" y="218" font-size="14" font-weight="normal" text-anchor="start" fill="#1b1f2a">宣言表は 1 field が 1 行</text>
<circle cx="60" cy="237" r="2.5" fill="#3b5bdb"/>
<text x="72" y="242" font-size="14" font-weight="normal" text-anchor="start" fill="#1b1f2a">行の列は 13 だけ</text>
<circle cx="60" cy="261" r="2.5" fill="#3b5bdb"/>
<text x="72" y="266" font-size="14" font-weight="normal" text-anchor="start" fill="#1b1f2a">問いに既定を持たない</text>
<line x1="304" y1="204.0" x2="344" y2="204.0" stroke="#5b6272" stroke-width="1.6" stroke-linecap="round" marker-end="url(#arrow)"/>
<rect x="352" y="118" width="260" height="172" rx="14" fill="#ffffff" stroke="#d9dce6" stroke-width="1" filter="url(#shadow)"/>
<rect x="352" y="118" width="260" height="6" rx="3" fill="#d6def9"/>
<circle cx="378" cy="152" r="14" fill="#3b5bdb"/>
<text x="378" y="157" font-size="14" font-weight="bold" text-anchor="middle" fill="#ffffff">2</text>
<text x="400" y="158" font-size="17" font-weight="bold" text-anchor="start" fill="#1b1f2a">宣言を検査する</text>
<circle cx="376" cy="189" r="2.5" fill="#3b5bdb"/>
<text x="388" y="194" font-size="14" font-weight="normal" text-anchor="start" fill="#1b1f2a">field の重複と『:』</text>
<circle cx="376" cy="213" r="2.5" fill="#3b5bdb"/>
<text x="388" y="218" font-size="14" font-weight="normal" text-anchor="start" fill="#1b1f2a">pin の列名を知っているか</text>
<circle cx="376" cy="237" r="2.5" fill="#3b5bdb"/>
<text x="388" y="242" font-size="14" font-weight="normal" text-anchor="start" fill="#1b1f2a">必ず焼く 8 列が在るか</text>
<circle cx="376" cy="261" r="2.5" fill="#3b5bdb"/>
<text x="388" y="266" font-size="14" font-weight="normal" text-anchor="start" fill="#1b1f2a">要求された field が在るか</text>
<line x1="620" y1="204.0" x2="660" y2="204.0" stroke="#5b6272" stroke-width="1.6" stroke-linecap="round" marker-end="url(#arrow)"/>
<rect x="668" y="118" width="260" height="172" rx="14" fill="#ffffff" stroke="#d9dce6" stroke-width="1" filter="url(#shadow)"/>
<rect x="668" y="118" width="260" height="6" rx="3" fill="#c4d0f6"/>
<circle cx="694" cy="152" r="14" fill="#3b5bdb"/>
<text x="694" y="157" font-size="14" font-weight="bold" text-anchor="middle" fill="#ffffff">3</text>
<text x="716" y="158" font-size="17" font-weight="bold" text-anchor="start" fill="#1b1f2a">問いと行を合わせる</text>
<circle cx="692" cy="189" r="2.5" fill="#3b5bdb"/>
<text x="704" y="194" font-size="14" font-weight="normal" text-anchor="start" fill="#1b1f2a">rule と selector の一致</text>
<circle cx="692" cy="213" r="2.5" fill="#3b5bdb"/>
<text x="704" y="218" font-size="14" font-weight="normal" text-anchor="start" fill="#1b1f2a">当たるのはちょうど 1 行か</text>
<circle cx="692" cy="237" r="2.5" fill="#3b5bdb"/>
<text x="704" y="242" font-size="14" font-weight="normal" text-anchor="start" fill="#1b1f2a">近い行で埋めない</text>
<circle cx="692" cy="261" r="2.5" fill="#3b5bdb"/>
<text x="704" y="266" font-size="14" font-weight="normal" text-anchor="start" fill="#1b1f2a">順位で決め直さない</text>
<line x1="936" y1="204.0" x2="976" y2="204.0" stroke="#5b6272" stroke-width="1.6" stroke-linecap="round" marker-end="url(#arrow)"/>
<rect x="984" y="118" width="260" height="172" rx="14" fill="#ffffff" stroke="#d9dce6" stroke-width="1" filter="url(#shadow)"/>
<rect x="984" y="118" width="260" height="6" rx="3" fill="#b0c1f2"/>
<circle cx="1010" cy="152" r="14" fill="#3b5bdb"/>
<text x="1010" y="157" font-size="14" font-weight="bold" text-anchor="middle" fill="#ffffff">4</text>
<text x="1032" y="158" font-size="17" font-weight="bold" text-anchor="start" fill="#1b1f2a">版を焼く</text>
<circle cx="1008" cy="189" r="2.5" fill="#3b5bdb"/>
<text x="1020" y="194" font-size="14" font-weight="normal" text-anchor="start" fill="#1b1f2a">pin の列が行に在るか</text>
<circle cx="1008" cy="213" r="2.5" fill="#3b5bdb"/>
<text x="1020" y="218" font-size="14" font-weight="normal" text-anchor="start" fill="#1b1f2a">必ず焼く 8 列が埋まるか</text>
<circle cx="1008" cy="237" r="2.5" fill="#3b5bdb"/>
<text x="1020" y="242" font-size="14" font-weight="normal" text-anchor="start" fill="#1b1f2a">仮置きなら注記を足す</text>
<circle cx="1008" cy="261" r="2.5" fill="#3b5bdb"/>
<text x="1020" y="266" font-size="14" font-weight="normal" text-anchor="start" fill="#1b1f2a">値は書き換えない</text>
<line x1="1252" y1="204.0" x2="1292" y2="204.0" stroke="#5b6272" stroke-width="1.6" stroke-linecap="round" marker-end="url(#arrow)"/>
<rect x="1300" y="118" width="260" height="172" rx="14" fill="#ffffff" stroke="#d9dce6" stroke-width="1" filter="url(#shadow)"/>
<rect x="1300" y="118" width="260" height="6" rx="3" fill="#9cb1ee"/>
<circle cx="1326" cy="152" r="14" fill="#3b5bdb"/>
<text x="1326" y="157" font-size="14" font-weight="bold" text-anchor="middle" fill="#ffffff">5</text>
<text x="1348" y="158" font-size="17" font-weight="bold" text-anchor="start" fill="#1b1f2a">字数の上限を見る</text>
<circle cx="1324" cy="189" r="2.5" fill="#3b5bdb"/>
<text x="1336" y="194" font-size="14" font-weight="normal" text-anchor="start" fill="#1b1f2a">宣言された max_chars</text>
<circle cx="1324" cy="213" r="2.5" fill="#3b5bdb"/>
<text x="1336" y="218" font-size="14" font-weight="normal" text-anchor="start" fill="#1b1f2a">超えたら止まる</text>
<circle cx="1324" cy="237" r="2.5" fill="#3b5bdb"/>
<text x="1336" y="242" font-size="14" font-weight="normal" text-anchor="start" fill="#1b1f2a">要約も切り詰めもしない</text>
<circle cx="1324" cy="261" r="2.5" fill="#3b5bdb"/>
<text x="1336" y="266" font-size="14" font-weight="normal" text-anchor="start" fill="#1b1f2a">表全体を貼る経路が無い</text>
<line x1="1568" y1="204.0" x2="1608" y2="204.0" stroke="#5b6272" stroke-width="1.6" stroke-linecap="round" marker-end="url(#arrow)"/>
<rect x="1616" y="118" width="260" height="172" rx="14" fill="#ffffff" stroke="#d9dce6" stroke-width="1" filter="url(#shadow)"/>
<rect x="1616" y="118" width="260" height="6" rx="3" fill="#9cb1ee"/>
<circle cx="1642" cy="152" r="14" fill="#3b5bdb"/>
<text x="1642" y="157" font-size="14" font-weight="bold" text-anchor="middle" fill="#ffffff">6</text>
<text x="1664" y="158" font-size="17" font-weight="bold" text-anchor="start" fill="#1b1f2a">2 回組み立てて返す</text>
<circle cx="1640" cy="189" r="2.5" fill="#3b5bdb"/>
<text x="1652" y="194" font-size="14" font-weight="normal" text-anchor="start" fill="#1b1f2a">順・区切り・改行を固定</text>
<circle cx="1640" cy="213" r="2.5" fill="#3b5bdb"/>
<text x="1652" y="218" font-size="14" font-weight="normal" text-anchor="start" fill="#1b1f2a">2 回目と sha256 を突合</text>
<circle cx="1640" cy="237" r="2.5" fill="#3b5bdb"/>
<text x="1652" y="242" font-size="14" font-weight="normal" text-anchor="start" fill="#1b1f2a">文字数とバイト数を返す</text>
<circle cx="1640" cy="261" r="2.5" fill="#3b5bdb"/>
<text x="1652" y="266" font-size="14" font-weight="normal" text-anchor="start" fill="#1b1f2a">トークン数は返さない</text>
<line x1="324.0" y1="292" x2="324.0" y2="308" stroke="#c2410c" stroke-width="1.2" stroke-dasharray="3 4" stroke-linecap="round"/>
<rect x="192.675" y="310" width="262.65" height="28" rx="14" fill="#fff1e8" stroke="#c2410c" stroke-width="1"/>
<text x="324.0" y="329" font-size="13" text-anchor="middle" fill="#c2410c">rule / selector が無い</text>
<line x1="640.0" y1="292" x2="640.0" y2="308" stroke="#c2410c" stroke-width="1.2" stroke-dasharray="3 4" stroke-linecap="round"/>
<rect x="533.375" y="310" width="213.25" height="28" rx="14" fill="#fff1e8" stroke="#c2410c" stroke-width="1"/>
<text x="640.0" y="329" font-size="13" text-anchor="middle" fill="#c2410c">宣言に無い field を要求</text>
<line x1="956.0" y1="292" x2="956.0" y2="308" stroke="#c2410c" stroke-width="1.2" stroke-dasharray="3 4" stroke-linecap="round"/>
<rect x="837.025" y="310" width="237.95" height="28" rx="14" fill="#fff1e8" stroke="#c2410c" stroke-width="1"/>
<text x="956.0" y="329" font-size="13" text-anchor="middle" fill="#c2410c">該当 0 件 / 該当 2 件以上</text>
<line x1="1272.0" y1="292" x2="1272.0" y2="308" stroke="#c2410c" stroke-width="1.2" stroke-dasharray="3 4" stroke-linecap="round"/>
<rect x="1134.5" y="310" width="275.0" height="28" rx="14" fill="#fff1e8" stroke="#c2410c" stroke-width="1"/>
<text x="1272.0" y="329" font-size="13" text-anchor="middle" fill="#c2410c">必ず焼く列が空欄 / pin の列が無い</text>
<line x1="1588.0" y1="292" x2="1588.0" y2="308" stroke="#c2410c" stroke-width="1.2" stroke-dasharray="3 4" stroke-linecap="round"/>
<rect x="1462.85" y="310" width="250.29999999999998" height="28" rx="14" fill="#fff1e8" stroke="#c2410c" stroke-width="1"/>
<text x="1588.0" y="329" font-size="13" text-anchor="middle" fill="#c2410c">max_chars 超過 / 不一致</text>
<text x="36" y="396" font-size="13" font-weight="normal" text-anchor="start" fill="#5b6272">前の段で止まったら次の段には進まない。止まった時は塊が 1 つも作られず、理由コード 10 個のどれかだけが返る。組み立てたことは「宣言された列を欠けなく焼いた塊を作った」までで、AI がその塊を使うか・答えが正しいかは判定しない。</text>
</svg>