<svg xmlns="http://www.w3.org/2000/svg" width="1102" height="548" viewBox="0 0 1102 548" font-family="'BIZ UDPGothic', 'Yu Gothic UI', 'Meiryo UI', sans-serif">
<defs><filter id="shadow" x="-5%" y="-5%" width="110%" height="120%"><feGaussianBlur in="SourceAlpha" stdDeviation="3" result="blur"/><feOffset in="blur" dx="0" dy="2" result="off"/><feFlood flood-color="#1b1f2a" flood-opacity="0.10" result="col"/><feComposite in="col" in2="off" operator="in" result="sh"/><feMerge><feMergeNode in="sh"/><feMergeNode in="SourceGraphic"/></feMerge></filter><marker id="arrow" markerWidth="8" markerHeight="8" refX="7" refY="4" orient="auto" markerUnits="userSpaceOnUse"><path d="M0,0.5 L7,4 L0,7.5" fill="none" stroke="#5b6272" stroke-width="1.6" stroke-linecap="round" stroke-linejoin="round"/></marker></defs>
<rect width="1102" height="548" fill="#f5f6fa"/>
<text x="36" y="48" font-size="24" font-weight="bold" fill="#1b1f2a">汎用 core と特化 pack の切り分け</text>
<text x="36" y="74" font-size="14" fill="#5b6272">2 つの判定で 4 象限に置く。左列の「汎用」は pack が 2 個目を通るまで候補</text>
<text x="628.0" y="92" font-size="13" font-weight="normal" text-anchor="middle" fill="#5b6272">業種・製品に依存するか</text>
<text x="405.0" y="118" font-size="16" font-weight="bold" text-anchor="middle" fill="#1b1f2a">業種非依存(汎用候補)</text>
<text x="851.0" y="118" font-size="16" font-weight="bold" text-anchor="middle" fill="#1b1f2a">業種依存(特化)</text>
<text transform="translate(36,304.0) rotate(-90)" font-size="13" text-anchor="middle" fill="#5b6272">行政が誰でも同じ答えを出すか</text>
<text x="172" y="219.0" font-size="15" font-weight="bold" text-anchor="end" fill="#1b1f2a">Yes: 表に入る</text>
<rect x="190" y="132" width="430" height="164" rx="14" fill="#e7ecfb" stroke="#c4d0f6" stroke-width="1" filter="url(#shadow)"/>
<text x="212" y="168" font-size="17" font-weight="bold" text-anchor="start" fill="#1b1f2a">rules-core(汎用候補)</text>
<circle cx="216" cy="195" r="2.5" fill="#3b5bdb"/>
<text x="228" y="200" font-size="14" font-weight="normal" text-anchor="start" fill="#1b1f2a">行形式 / resolve / validate</text>
<circle cx="216" cy="219" r="2.5" fill="#3b5bdb"/>
<text x="228" y="224" font-size="14" font-weight="normal" text-anchor="start" fill="#1b1f2a">数式 registry(安全評価)</text>
<circle cx="216" cy="243" r="2.5" fill="#3b5bdb"/>
<text x="228" y="248" font-size="14" font-weight="normal" text-anchor="start" fill="#1b1f2a">pipeline 骨格 / CLI</text>
<rect x="636" y="132" width="430" height="164" rx="14" fill="#ffffff" stroke="#d9dce6" stroke-width="1" filter="url(#shadow)"/>
<text x="658" y="168" font-size="17" font-weight="bold" text-anchor="start" fill="#1b1f2a">rules-pack-*</text>
<circle cx="662" cy="195" r="2.5" fill="#3b5bdb"/>
<text x="674" y="200" font-size="14" font-weight="normal" text-anchor="start" fill="#1b1f2a">sharoushi(既存 = 第 1 号)</text>
<circle cx="662" cy="219" r="2.5" fill="#3b5bdb"/>
<text x="674" y="224" font-size="14" font-weight="normal" text-anchor="start" fill="#1b1f2a">税 / 最低賃金 / 自治体 …(候補)</text>
<circle cx="662" cy="243" r="2.5" fill="#3b5bdb"/>
<text x="674" y="248" font-size="14" font-weight="normal" text-anchor="start" fill="#1b1f2a">sources_manifest + extractors</text>
<text x="172" y="399.0" font-size="15" font-weight="bold" text-anchor="end" fill="#1b1f2a">No: 変換部品</text>
<rect x="190" y="312" width="430" height="164" rx="14" fill="#e7ecfb" stroke="#c4d0f6" stroke-width="1" filter="url(#shadow)"/>
<text x="212" y="348" font-size="17" font-weight="bold" text-anchor="start" fill="#1b1f2a">jp-data-kit(汎用候補)</text>
<circle cx="216" cy="375" r="2.5" fill="#3b5bdb"/>
<text x="228" y="380" font-size="14" font-weight="normal" text-anchor="start" fill="#1b1f2a">CSV 文字コード判定</text>
<circle cx="216" cy="399" r="2.5" fill="#3b5bdb"/>
<text x="228" y="404" font-size="14" font-weight="normal" text-anchor="start" fill="#1b1f2a">氏名・会社名正規化 / 和暦</text>
<circle cx="216" cy="423" r="2.5" fill="#3b5bdb"/>
<text x="228" y="428" font-size="14" font-weight="normal" text-anchor="start" fill="#1b1f2a">取込 CSV 書出 / 色分け Excel</text>
<rect x="636" y="312" width="430" height="164" rx="14" fill="#eef0f5" stroke="#d9dce6" stroke-width="1" filter="url(#shadow)"/>
<text x="658" y="348" font-size="17" font-weight="bold" text-anchor="start" fill="#1b1f2a">domain adapters</text>
<circle cx="662" cy="375" r="2.5" fill="#5b6272"/>
<text x="674" y="380" font-size="14" font-weight="normal" text-anchor="start" fill="#1b1f2a">給与ソフト・業務 SaaS の取込仕様</text>
<circle cx="662" cy="399" r="2.5" fill="#5b6272"/>
<text x="674" y="404" font-size="14" font-weight="normal" text-anchor="start" fill="#1b1f2a">賃金台帳パーサ(給与ソフト別)</text>
<circle cx="662" cy="423" r="2.5" fill="#5b6272"/>
<text x="674" y="428" font-size="14" font-weight="normal" text-anchor="start" fill="#1b1f2a">kintone / Chatwork クライアント</text>
<rect x="190" y="502" width="18" height="14" rx="4" fill="#e7ecfb" stroke="#c4d0f6"/>
<text x="216" y="514" font-size="13" font-weight="normal" text-anchor="start" fill="#5b6272">公開(汎用候補)</text>
<rect x="356" y="502" width="18" height="14" rx="4" fill="#ffffff" stroke="#d9dce6"/>
<text x="382" y="514" font-size="13" font-weight="normal" text-anchor="start" fill="#5b6272">公開(特化 pack)</text>
<rect x="564" y="502" width="18" height="14" rx="4" fill="#eef0f5" stroke="#d9dce6"/>
<text x="590" y="514" font-size="13" font-weight="normal" text-anchor="start" fill="#5b6272">非公開</text>
</svg>