<svg xmlns="http://www.w3.org/2000/svg" width="1912" height="426" viewBox="0 0 1912 426" font-family="'BIZ UDPGothic', 'Yu Gothic UI', 'Meiryo UI', sans-serif">
<defs><filter id="shadow" x="-5%" y="-5%" width="110%" height="120%"><feGaussianBlur in="SourceAlpha" stdDeviation="3" result="blur"/><feOffset in="blur" dx="0" dy="2" result="off"/><feFlood flood-color="#1b1f2a" flood-opacity="0.10" result="col"/><feComposite in="col" in2="off" operator="in" result="sh"/><feMerge><feMergeNode in="sh"/><feMergeNode in="SourceGraphic"/></feMerge></filter><marker id="arrow" markerWidth="8" markerHeight="8" refX="7" refY="4" orient="auto" markerUnits="userSpaceOnUse"><path d="M0,0.5 L7,4 L0,7.5" fill="none" stroke="#5b6272" stroke-width="1.6" stroke-linecap="round" stroke-linejoin="round"/></marker></defs>
<rect width="1912" height="426" fill="#f5f6fa"/>
<text x="36" y="48" font-size="24" font-weight="bold" fill="#1b1f2a">仕分けの流れ — 仕様表を検査する → 行と突き合わせる → 列ごとに 3 値で判定する → 行は最悪値で分類する</text>
<text x="36" y="74" font-size="14" fill="#5b6272">橙のピルが関所。値を書き換える経路と、そのまま通る行だけを抜き出して取込ファイルを作る経路はこの図に無い(関数にも CLI にも引数が無い)</text>
<rect x="36" y="118" width="260" height="172" rx="14" fill="#ffffff" stroke="#d9dce6" stroke-width="1" filter="url(#shadow)"/>
<rect x="36" y="118" width="260" height="6" rx="3" fill="#e7ecfb"/>
<circle cx="62" cy="152" r="14" fill="#3b5bdb"/>
<text x="62" y="157" font-size="14" font-weight="bold" text-anchor="middle" fill="#ffffff">1</text>
<text x="84" y="158" font-size="17" font-weight="bold" text-anchor="start" fill="#1b1f2a">2 つを読む</text>
<circle cx="60" cy="189" r="2.5" fill="#3b5bdb"/>
<text x="72" y="194" font-size="14" font-weight="normal" text-anchor="start" fill="#1b1f2a">行は前の工程から受け取る</text>
<circle cx="60" cy="213" r="2.5" fill="#3b5bdb"/>
<text x="72" y="218" font-size="14" font-weight="normal" text-anchor="start" fill="#1b1f2a">仕様表は 1 列が 1 行</text>
<circle cx="60" cy="237" r="2.5" fill="#3b5bdb"/>
<text x="72" y="242" font-size="14" font-weight="normal" text-anchor="start" fill="#1b1f2a">識別子の列名を宣言する</text>
<circle cx="60" cy="261" r="2.5" fill="#3b5bdb"/>
<text x="72" y="266" font-size="14" font-weight="normal" text-anchor="start" fill="#1b1f2a">型も値域も仕様表の側</text>
<line x1="304" y1="204.0" x2="344" y2="204.0" stroke="#5b6272" stroke-width="1.6" stroke-linecap="round" marker-end="url(#arrow)"/>
<rect x="352" y="118" width="260" height="172" rx="14" fill="#ffffff" stroke="#d9dce6" stroke-width="1" filter="url(#shadow)"/>
<rect x="352" y="118" width="260" height="6" rx="3" fill="#d6def9"/>
<circle cx="378" cy="152" r="14" fill="#3b5bdb"/>
<text x="378" y="157" font-size="14" font-weight="bold" text-anchor="middle" fill="#ffffff">2</text>
<text x="400" y="158" font-size="17" font-weight="bold" text-anchor="start" fill="#1b1f2a">仕様表を検査する</text>
<circle cx="376" cy="189" r="2.5" fill="#3b5bdb"/>
<text x="388" y="194" font-size="14" font-weight="normal" text-anchor="start" fill="#1b1f2a">列の宣言が重複しないか</text>
<circle cx="376" cy="213" r="2.5" fill="#3b5bdb"/>
<text x="388" y="218" font-size="14" font-weight="normal" text-anchor="start" fill="#1b1f2a">型の名前が在るか</text>
<circle cx="376" cy="237" r="2.5" fill="#3b5bdb"/>
<text x="388" y="242" font-size="14" font-weight="normal" text-anchor="start" fill="#1b1f2a">値域の宣言が在るか</text>
<circle cx="376" cy="261" r="2.5" fill="#3b5bdb"/>
<text x="388" y="266" font-size="14" font-weight="normal" text-anchor="start" fill="#1b1f2a">直し方の名前を知っているか</text>
<line x1="620" y1="204.0" x2="660" y2="204.0" stroke="#5b6272" stroke-width="1.6" stroke-linecap="round" marker-end="url(#arrow)"/>
<rect x="668" y="118" width="260" height="172" rx="14" fill="#ffffff" stroke="#d9dce6" stroke-width="1" filter="url(#shadow)"/>
<rect x="668" y="118" width="260" height="6" rx="3" fill="#c4d0f6"/>
<circle cx="694" cy="152" r="14" fill="#3b5bdb"/>
<text x="694" y="157" font-size="14" font-weight="bold" text-anchor="middle" fill="#ffffff">3</text>
<text x="716" y="158" font-size="17" font-weight="bold" text-anchor="start" fill="#1b1f2a">行と突き合わせる</text>
<circle cx="692" cy="189" r="2.5" fill="#3b5bdb"/>
<text x="704" y="194" font-size="14" font-weight="normal" text-anchor="start" fill="#1b1f2a">仕様表に無い列が行に無いか</text>
<circle cx="692" cy="213" r="2.5" fill="#3b5bdb"/>
<text x="704" y="218" font-size="14" font-weight="normal" text-anchor="start" fill="#1b1f2a">識別子が重複していないか</text>
<circle cx="692" cy="237" r="2.5" fill="#3b5bdb"/>
<text x="704" y="242" font-size="14" font-weight="normal" text-anchor="start" fill="#1b1f2a">ここまでは 1 行も判定しない</text>
<circle cx="692" cy="261" r="2.5" fill="#3b5bdb"/>
<text x="704" y="266" font-size="14" font-weight="normal" text-anchor="start" fill="#1b1f2a">止まれば分類は 0 件</text>
<line x1="936" y1="204.0" x2="976" y2="204.0" stroke="#5b6272" stroke-width="1.6" stroke-linecap="round" marker-end="url(#arrow)"/>
<rect x="984" y="118" width="260" height="172" rx="14" fill="#ffffff" stroke="#d9dce6" stroke-width="1" filter="url(#shadow)"/>
<rect x="984" y="118" width="260" height="6" rx="3" fill="#b0c1f2"/>
<circle cx="1010" cy="152" r="14" fill="#3b5bdb"/>
<text x="1010" y="157" font-size="14" font-weight="bold" text-anchor="middle" fill="#ffffff">4</text>
<text x="1032" y="158" font-size="17" font-weight="bold" text-anchor="start" fill="#1b1f2a">列ごとに 3 値で判定</text>
<circle cx="1008" cy="189" r="2.5" fill="#3b5bdb"/>
<text x="1020" y="194" font-size="14" font-weight="normal" text-anchor="start" fill="#1b1f2a">型 → 値域 の順で 1 つ目の違反</text>
<circle cx="1008" cy="213" r="2.5" fill="#3b5bdb"/>
<text x="1020" y="218" font-size="14" font-weight="normal" text-anchor="start" fill="#1b1f2a">覆うと宣言された直し方が在るか</text>
<circle cx="1008" cy="237" r="2.5" fill="#3b5bdb"/>
<text x="1020" y="242" font-size="14" font-weight="normal" text-anchor="start" fill="#1b1f2a">在れば 2 本目、無ければ 3 本目</text>
<circle cx="1008" cy="261" r="2.5" fill="#3b5bdb"/>
<text x="1020" y="266" font-size="14" font-weight="normal" text-anchor="start" fill="#1b1f2a">値は 1 つも書き換えない</text>
<line x1="1252" y1="204.0" x2="1292" y2="204.0" stroke="#5b6272" stroke-width="1.6" stroke-linecap="round" marker-end="url(#arrow)"/>
<rect x="1300" y="118" width="260" height="172" rx="14" fill="#ffffff" stroke="#d9dce6" stroke-width="1" filter="url(#shadow)"/>
<rect x="1300" y="118" width="260" height="6" rx="3" fill="#9cb1ee"/>
<circle cx="1326" cy="152" r="14" fill="#3b5bdb"/>
<text x="1326" y="157" font-size="14" font-weight="bold" text-anchor="middle" fill="#ffffff">5</text>
<text x="1348" y="158" font-size="17" font-weight="bold" text-anchor="start" fill="#1b1f2a">行は最悪値で分類</text>
<circle cx="1324" cy="189" r="2.5" fill="#3b5bdb"/>
<text x="1336" y="194" font-size="14" font-weight="normal" text-anchor="start" fill="#1b1f2a">通る &lt; 直し方で通る &lt; 人が決める</text>
<circle cx="1324" cy="213" r="2.5" fill="#3b5bdb"/>
<text x="1336" y="218" font-size="14" font-weight="normal" text-anchor="start" fill="#1b1f2a">1 列でも 3 本目なら行は 3 本目</text>
<circle cx="1324" cy="237" r="2.5" fill="#3b5bdb"/>
<text x="1336" y="242" font-size="14" font-weight="normal" text-anchor="start" fill="#1b1f2a">違反の明細は列ごとに残す</text>
<circle cx="1324" cy="261" r="2.5" fill="#3b5bdb"/>
<text x="1336" y="266" font-size="14" font-weight="normal" text-anchor="start" fill="#1b1f2a">返るのは直し方の名前と現在の値</text>
<line x1="1568" y1="204.0" x2="1608" y2="204.0" stroke="#5b6272" stroke-width="1.6" stroke-linecap="round" marker-end="url(#arrow)"/>
<rect x="1616" y="118" width="260" height="172" rx="14" fill="#ffffff" stroke="#d9dce6" stroke-width="1" filter="url(#shadow)"/>
<rect x="1616" y="118" width="260" height="6" rx="3" fill="#9cb1ee"/>
<circle cx="1642" cy="152" r="14" fill="#3b5bdb"/>
<text x="1642" y="157" font-size="14" font-weight="bold" text-anchor="middle" fill="#ffffff">6</text>
<text x="1664" y="158" font-size="17" font-weight="bold" text-anchor="start" fill="#1b1f2a">件数と明細を返す</text>
<circle cx="1640" cy="189" r="2.5" fill="#3b5bdb"/>
<text x="1652" y="194" font-size="14" font-weight="normal" text-anchor="start" fill="#1b1f2a">3 分類の件数と分母の内訳</text>
<circle cx="1640" cy="213" r="2.5" fill="#3b5bdb"/>
<text x="1652" y="218" font-size="14" font-weight="normal" text-anchor="start" fill="#1b1f2a">率だけは返さない</text>
<circle cx="1640" cy="237" r="2.5" fill="#3b5bdb"/>
<text x="1652" y="242" font-size="14" font-weight="normal" text-anchor="start" fill="#1b1f2a">問い合わせの文面は作らない</text>
<circle cx="1640" cy="261" r="2.5" fill="#3b5bdb"/>
<text x="1652" y="266" font-size="14" font-weight="normal" text-anchor="start" fill="#1b1f2a">全部通った時だけ次へ渡す</text>
<line x1="324.0" y1="292" x2="324.0" y2="308" stroke="#c2410c" stroke-width="1.2" stroke-dasharray="3 4" stroke-linecap="round"/>
<rect x="198.85000000000002" y="310" width="250.29999999999998" height="28" rx="14" fill="#fff1e8" stroke="#c2410c" stroke-width="1"/>
<text x="324.0" y="329" font-size="13" text-anchor="middle" fill="#c2410c">型の名前が空欄 / 値域の宣言が空欄</text>
<line x1="640.0" y1="292" x2="640.0" y2="308" stroke="#c2410c" stroke-width="1.2" stroke-dasharray="3 4" stroke-linecap="round"/>
<rect x="527.2" y="310" width="225.6" height="28" rx="14" fill="#fff1e8" stroke="#c2410c" stroke-width="1"/>
<text x="640.0" y="329" font-size="13" text-anchor="middle" fill="#c2410c">仕様表に無い列 / 識別子が重複</text>
<line x1="956.0" y1="292" x2="956.0" y2="308" stroke="#c2410c" stroke-width="1.2" stroke-dasharray="3 4" stroke-linecap="round"/>
<rect x="874.075" y="310" width="163.85" height="28" rx="14" fill="#fff1e8" stroke="#c2410c" stroke-width="1"/>
<text x="956.0" y="329" font-size="13" text-anchor="middle" fill="#c2410c">判定前に出力を要求した</text>
<line x1="1272.0" y1="292" x2="1272.0" y2="308" stroke="#c2410c" stroke-width="1.2" stroke-dasharray="3 4" stroke-linecap="round"/>
<rect x="1159.2" y="310" width="225.6" height="28" rx="14" fill="#fff1e8" stroke="#c2410c" stroke-width="1"/>
<text x="1272.0" y="329" font-size="13" text-anchor="middle" fill="#c2410c">宣言が覆わない違反は 3 本目へ</text>
<line x1="1588.0" y1="292" x2="1588.0" y2="308" stroke="#c2410c" stroke-width="1.2" stroke-dasharray="3 4" stroke-linecap="round"/>
<rect x="1499.9" y="310" width="176.2" height="28" rx="14" fill="#fff1e8" stroke="#c2410c" stroke-width="1"/>
<text x="1588.0" y="329" font-size="13" text-anchor="middle" fill="#c2410c">1 行でも残れば渡さない</text>
<text x="36" y="396" font-size="13" font-weight="normal" text-anchor="start" fill="#5b6272">前の段で止まったら次の段には進まない。止まった時は行が 1 つも分類されず、理由コード 8 個のどれかだけが返る。仕分けたことは「宣言された型と値域に照らしてどこに落ちるか」までで、取込先が実際に受け取るかは判定しない。</text>
</svg>