<svg xmlns="http://www.w3.org/2000/svg" width="1596" height="402" viewBox="0 0 1596 402" font-family="'BIZ UDPGothic', 'Yu Gothic UI', 'Meiryo UI', sans-serif">
<defs><filter id="shadow" x="-5%" y="-5%" width="110%" height="120%"><feGaussianBlur in="SourceAlpha" stdDeviation="3" result="blur"/><feOffset in="blur" dx="0" dy="2" result="off"/><feFlood flood-color="#1b1f2a" flood-opacity="0.10" result="col"/><feComposite in="col" in2="off" operator="in" result="sh"/><feMerge><feMergeNode in="sh"/><feMergeNode in="SourceGraphic"/></feMerge></filter><marker id="arrow" markerWidth="8" markerHeight="8" refX="7" refY="4" orient="auto" markerUnits="userSpaceOnUse"><path d="M0,0.5 L7,4 L0,7.5" fill="none" stroke="#5b6272" stroke-width="1.6" stroke-linecap="round" stroke-linejoin="round"/></marker></defs>
<rect width="1596" height="402" fill="#f5f6fa"/>
<text x="36" y="48" font-size="24" font-weight="bold" fill="#1b1f2a">会社名の突合の流れ — 番号がある行は番号で、無い行は法人格を捨てないキーで</text>
<text x="36" y="74" font-size="14" fill="#5b6272">機械がやるのは番号の検査とキーの照合まで。同じ法人かどうかが決まらない行は理由コードを付けて人に返す</text>
<rect x="36" y="118" width="260" height="148" rx="14" fill="#ffffff" stroke="#d9dce6" stroke-width="1" filter="url(#shadow)"/>
<rect x="36" y="118" width="260" height="6" rx="3" fill="#e7ecfb"/>
<circle cx="62" cy="152" r="14" fill="#3b5bdb"/>
<text x="62" y="157" font-size="14" font-weight="bold" text-anchor="middle" fill="#ffffff">1</text>
<text x="84" y="158" font-size="17" font-weight="bold" text-anchor="start" fill="#1b1f2a">表記の正規化</text>
<circle cx="60" cy="189" r="2.5" fill="#3b5bdb"/>
<text x="72" y="194" font-size="14" font-weight="normal" text-anchor="start" fill="#1b1f2a">NFKC で合字と全角英数を寄せる</text>
<circle cx="60" cy="213" r="2.5" fill="#3b5bdb"/>
<text x="72" y="218" font-size="14" font-weight="normal" text-anchor="start" fill="#1b1f2a">空白と区切りを除く</text>
<circle cx="60" cy="237" r="2.5" fill="#3b5bdb"/>
<text x="72" y="242" font-size="14" font-weight="normal" text-anchor="start" fill="#1b1f2a">法人格は落とさない</text>
<line x1="304" y1="192.0" x2="344" y2="192.0" stroke="#5b6272" stroke-width="1.6" stroke-linecap="round" marker-end="url(#arrow)"/>
<rect x="352" y="118" width="260" height="148" rx="14" fill="#ffffff" stroke="#d9dce6" stroke-width="1" filter="url(#shadow)"/>
<rect x="352" y="118" width="260" height="6" rx="3" fill="#d6def9"/>
<circle cx="378" cy="152" r="14" fill="#3b5bdb"/>
<text x="378" y="157" font-size="14" font-weight="bold" text-anchor="middle" fill="#ffffff">2</text>
<text x="400" y="158" font-size="17" font-weight="bold" text-anchor="start" fill="#1b1f2a">法人格の分離</text>
<circle cx="376" cy="189" r="2.5" fill="#3b5bdb"/>
<text x="388" y="194" font-size="14" font-weight="normal" text-anchor="start" fill="#1b1f2a">前株・後株・中間のどこでも</text>
<circle cx="376" cy="213" r="2.5" fill="#3b5bdb"/>
<text x="388" y="218" font-size="14" font-weight="normal" text-anchor="start" fill="#1b1f2a">種類として取り出して保持</text>
<circle cx="376" cy="237" r="2.5" fill="#3b5bdb"/>
<text x="388" y="242" font-size="14" font-weight="normal" text-anchor="start" fill="#1b1f2a">支店・営業所は印だけ立てる</text>
<line x1="620" y1="192.0" x2="660" y2="192.0" stroke="#5b6272" stroke-width="1.6" stroke-linecap="round" marker-end="url(#arrow)"/>
<rect x="668" y="118" width="260" height="148" rx="14" fill="#ffffff" stroke="#d9dce6" stroke-width="1" filter="url(#shadow)"/>
<rect x="668" y="118" width="260" height="6" rx="3" fill="#c4d0f6"/>
<circle cx="694" cy="152" r="14" fill="#3b5bdb"/>
<text x="694" y="157" font-size="14" font-weight="bold" text-anchor="middle" fill="#ffffff">3</text>
<text x="716" y="158" font-size="17" font-weight="bold" text-anchor="start" fill="#1b1f2a">番号の経路</text>
<circle cx="692" cy="189" r="2.5" fill="#3b5bdb"/>
<text x="704" y="194" font-size="14" font-weight="normal" text-anchor="start" fill="#1b1f2a">13 桁の法人番号を取り出す</text>
<circle cx="692" cy="213" r="2.5" fill="#3b5bdb"/>
<text x="704" y="218" font-size="14" font-weight="normal" text-anchor="start" fill="#1b1f2a">検査数字を機械で確かめる</text>
<circle cx="692" cy="237" r="2.5" fill="#3b5bdb"/>
<text x="704" y="242" font-size="14" font-weight="normal" text-anchor="start" fill="#1b1f2a">通れば名前が違っても突合</text>
<line x1="936" y1="192.0" x2="976" y2="192.0" stroke="#5b6272" stroke-width="1.6" stroke-linecap="round" marker-end="url(#arrow)"/>
<rect x="984" y="118" width="260" height="148" rx="14" fill="#ffffff" stroke="#d9dce6" stroke-width="1" filter="url(#shadow)"/>
<rect x="984" y="118" width="260" height="6" rx="3" fill="#b0c1f2"/>
<circle cx="1010" cy="152" r="14" fill="#3b5bdb"/>
<text x="1010" y="157" font-size="14" font-weight="bold" text-anchor="middle" fill="#ffffff">4</text>
<text x="1032" y="158" font-size="17" font-weight="bold" text-anchor="start" fill="#1b1f2a">照合キー</text>
<circle cx="1008" cy="189" r="2.5" fill="#3b5bdb"/>
<text x="1020" y="194" font-size="14" font-weight="normal" text-anchor="start" fill="#1b1f2a">法人格の種類 + 屋号 + 事業所</text>
<circle cx="1008" cy="213" r="2.5" fill="#3b5bdb"/>
<text x="1020" y="218" font-size="14" font-weight="normal" text-anchor="start" fill="#1b1f2a">番号が無い行はここへ回る</text>
<circle cx="1008" cy="237" r="2.5" fill="#3b5bdb"/>
<text x="1020" y="242" font-size="14" font-weight="normal" text-anchor="start" fill="#1b1f2a">ここまでが決定論</text>
<line x1="1252" y1="192.0" x2="1292" y2="192.0" stroke="#5b6272" stroke-width="1.6" stroke-linecap="round" marker-end="url(#arrow)"/>
<rect x="1300" y="118" width="260" height="148" rx="14" fill="#ffffff" stroke="#d9dce6" stroke-width="1" filter="url(#shadow)"/>
<rect x="1300" y="118" width="260" height="6" rx="3" fill="#9cb1ee"/>
<circle cx="1326" cy="152" r="14" fill="#3b5bdb"/>
<text x="1326" y="157" font-size="14" font-weight="bold" text-anchor="middle" fill="#ffffff">5</text>
<text x="1348" y="158" font-size="17" font-weight="bold" text-anchor="start" fill="#1b1f2a">人に返す</text>
<circle cx="1324" cy="189" r="2.5" fill="#3b5bdb"/>
<text x="1336" y="194" font-size="14" font-weight="normal" text-anchor="start" fill="#1b1f2a">理由コード 7 種</text>
<circle cx="1324" cy="213" r="2.5" fill="#3b5bdb"/>
<text x="1336" y="218" font-size="14" font-weight="normal" text-anchor="start" fill="#1b1f2a">近い相手を候補に添える</text>
<circle cx="1324" cy="237" r="2.5" fill="#3b5bdb"/>
<text x="1336" y="242" font-size="14" font-weight="normal" text-anchor="start" fill="#1b1f2a">しきい値は持たない</text>
<line x1="640.0" y1="268" x2="640.0" y2="284" stroke="#c2410c" stroke-width="1.2" stroke-dasharray="3 4" stroke-linecap="round"/>
<rect x="465.45000000000005" y="286" width="349.09999999999997" height="28" rx="14" fill="#fff1e8" stroke="#c2410c" stroke-width="1"/>
<text x="640.0" y="305" font-size="13" text-anchor="middle" fill="#c2410c">屋号が残らない / 番号の検査に落ちる → 判断待ち</text>
<line x1="1272.0" y1="268" x2="1272.0" y2="284" stroke="#c2410c" stroke-width="1.2" stroke-dasharray="3 4" stroke-linecap="round"/>
<rect x="967.7750000000001" y="286" width="608.4499999999999" height="28" rx="14" fill="#fff1e8" stroke="#c2410c" stroke-width="1"/>
<text x="1272.0" y="305" font-size="13" text-anchor="middle" fill="#c2410c">相手なし / 相手が複数 / 自分側が重複 / 法人格が違う / 番号が食い違う → 判断待ち</text>
<text x="36" y="372" font-size="13" font-weight="normal" text-anchor="start" fill="#5b6272">橙のピル = 機械で止める関所。止めた行には理由コードと候補が付くので、人が見る対象がその行だけに絞られる。</text>
</svg>