<svg xmlns="http://www.w3.org/2000/svg" width="1102" height="1628" viewBox="0 0 1102 1628" font-family="'BIZ UDPGothic', 'Yu Gothic UI', 'Meiryo UI', sans-serif">
<defs><filter id="shadow" x="-5%" y="-5%" width="110%" height="120%"><feGaussianBlur in="SourceAlpha" stdDeviation="3" result="blur"/><feOffset in="blur" dx="0" dy="2" result="off"/><feFlood flood-color="#1b1f2a" flood-opacity="0.10" result="col"/><feComposite in="col" in2="off" operator="in" result="sh"/><feMerge><feMergeNode in="sh"/><feMergeNode in="SourceGraphic"/></feMerge></filter><marker id="arrow" markerWidth="8" markerHeight="8" refX="7" refY="4" orient="auto" markerUnits="userSpaceOnUse"><path d="M0,0.5 L7,4 L0,7.5" fill="none" stroke="#5b6272" stroke-width="1.6" stroke-linecap="round" stroke-linejoin="round"/></marker></defs>
<rect width="1102" height="1628" fill="#f5f6fa"/>
<text x="36" y="48" font-size="24" font-weight="bold" fill="#1b1f2a">入力の種類 × 突合の仕方 — どこまで機械が決め、どこから人に返すか</text>
<text x="36" y="74" font-size="14" fill="#5b6272">合成データで実測(tests/test_jp_corp.py)。素朴な突合 = 法人格を除去して完全一致、外れたら類似度 0.8 以上を自動採用</text>
<text x="405.0" y="118" font-size="16" font-weight="bold" text-anchor="middle" fill="#1b1f2a">素朴な突合(法人格を除去 → 類似度で自動採用)</text>
<text x="851.0" y="118" font-size="16" font-weight="bold" text-anchor="middle" fill="#1b1f2a">この道具(番号 → 照合キー → 判断待ち)</text>
<text x="172" y="219.0" font-size="15" font-weight="bold" text-anchor="end" fill="#1b1f2a">合字と全角英数</text>
<rect x="190" y="132" width="430" height="164" rx="14" fill="#fff1e8" stroke="#f5c9ae" stroke-width="1" filter="url(#shadow)"/>
<text x="212" y="168" font-size="17" font-weight="bold" text-anchor="start" fill="#1b1f2a">外れる</text>
<circle cx="216" cy="195" r="2.5" fill="#c2410c"/>
<text x="228" y="200" font-size="14" font-weight="normal" text-anchor="start" fill="#1b1f2a">㈱ と 株式会社 は別の文字列</text>
<circle cx="216" cy="219" r="2.5" fill="#c2410c"/>
<text x="228" y="224" font-size="14" font-weight="normal" text-anchor="start" fill="#1b1f2a">類似度は低く出るので拾えない</text>
<rect x="636" y="132" width="430" height="164" rx="14" fill="#e7ecfb" stroke="#c4d0f6" stroke-width="1" filter="url(#shadow)"/>
<text x="658" y="168" font-size="17" font-weight="bold" text-anchor="start" fill="#1b1f2a">1 段目で寄る</text>
<circle cx="662" cy="195" r="2.5" fill="#3b5bdb"/>
<text x="674" y="200" font-size="14" font-weight="normal" text-anchor="start" fill="#1b1f2a">NFKC で合字と全角を寄せる</text>
<circle cx="662" cy="219" r="2.5" fill="#3b5bdb"/>
<text x="674" y="224" font-size="14" font-weight="normal" text-anchor="start" fill="#1b1f2a">同じ照合キーになる</text>
<text x="172" y="399.0" font-size="15" font-weight="bold" text-anchor="end" fill="#1b1f2a">前株・後株</text>
<rect x="190" y="312" width="430" height="164" rx="14" fill="#fff1e8" stroke="#f5c9ae" stroke-width="1" filter="url(#shadow)"/>
<text x="212" y="348" font-size="17" font-weight="bold" text-anchor="start" fill="#1b1f2a">外れる</text>
<circle cx="216" cy="375" r="2.5" fill="#c2410c"/>
<text x="228" y="380" font-size="14" font-weight="normal" text-anchor="start" fill="#1b1f2a">株式会社山田商事 と 山田商事株式会社</text>
<circle cx="216" cy="399" r="2.5" fill="#c2410c"/>
<text x="228" y="404" font-size="14" font-weight="normal" text-anchor="start" fill="#1b1f2a">並び順が違うだけで別の文字列</text>
<rect x="636" y="312" width="430" height="164" rx="14" fill="#e7ecfb" stroke="#c4d0f6" stroke-width="1" filter="url(#shadow)"/>
<text x="658" y="348" font-size="17" font-weight="bold" text-anchor="start" fill="#1b1f2a">2 段目で寄る</text>
<circle cx="662" cy="375" r="2.5" fill="#3b5bdb"/>
<text x="674" y="380" font-size="14" font-weight="normal" text-anchor="start" fill="#1b1f2a">法人格は位置によらず分離する</text>
<circle cx="662" cy="399" r="2.5" fill="#3b5bdb"/>
<text x="674" y="404" font-size="14" font-weight="normal" text-anchor="start" fill="#1b1f2a">屋号の並びは変わらない</text>
<text x="172" y="579.0" font-size="15" font-weight="bold" text-anchor="end" fill="#1b1f2a">支店・営業所つき</text>
<rect x="190" y="492" width="430" height="164" rx="14" fill="#fff1e8" stroke="#f5c9ae" stroke-width="1" filter="url(#shadow)"/>
<text x="212" y="528" font-size="17" font-weight="bold" text-anchor="start" fill="#1b1f2a">本社と分けられない</text>
<circle cx="216" cy="555" r="2.5" fill="#c2410c"/>
<text x="228" y="560" font-size="14" font-weight="normal" text-anchor="start" fill="#1b1f2a">片方に支店名が無いと 4 文字違い</text>
<circle cx="216" cy="579" r="2.5" fill="#c2410c"/>
<text x="228" y="584" font-size="14" font-weight="normal" text-anchor="start" fill="#1b1f2a">類似度で寄せると本社の行に当たることがある</text>
<rect x="636" y="492" width="430" height="164" rx="14" fill="#e7ecfb" stroke="#c4d0f6" stroke-width="1" filter="url(#shadow)"/>
<text x="658" y="528" font-size="17" font-weight="bold" text-anchor="start" fill="#1b1f2a">別のキーになる</text>
<circle cx="662" cy="555" r="2.5" fill="#3b5bdb"/>
<text x="674" y="560" font-size="14" font-weight="normal" text-anchor="start" fill="#1b1f2a">事業所の印を立てて別扱い</text>
<circle cx="662" cy="579" r="2.5" fill="#3b5bdb"/>
<text x="674" y="584" font-size="14" font-weight="normal" text-anchor="start" fill="#1b1f2a">支店名は屋号から切らない</text>
<text x="172" y="759.0" font-size="15" font-weight="bold" text-anchor="end" fill="#1b1f2a">法人格だけ違う同名</text>
<rect x="190" y="672" width="430" height="164" rx="14" fill="#fff1e8" stroke="#f5c9ae" stroke-width="1" filter="url(#shadow)"/>
<text x="212" y="708" font-size="17" font-weight="bold" text-anchor="start" fill="#1b1f2a">黙って畳む</text>
<circle cx="216" cy="735" r="2.5" fill="#c2410c"/>
<text x="228" y="740" font-size="14" font-weight="normal" text-anchor="start" fill="#1b1f2a">法人格を除去すると同じ文字列</text>
<circle cx="216" cy="759" r="2.5" fill="#c2410c"/>
<text x="228" y="764" font-size="14" font-weight="normal" text-anchor="start" fill="#1b1f2a">山田商事株式会社 と 山田商事有限会社</text>
<circle cx="216" cy="783" r="2.5" fill="#c2410c"/>
<text x="228" y="788" font-size="14" font-weight="normal" text-anchor="start" fill="#1b1f2a">どちらが採用されるかは並び順しだい</text>
<rect x="636" y="672" width="430" height="164" rx="14" fill="#eef0f5" stroke="#d9dce6" stroke-width="1" filter="url(#shadow)"/>
<text x="658" y="708" font-size="17" font-weight="bold" text-anchor="start" fill="#1b1f2a">判断待ちに落ちる</text>
<circle cx="662" cy="735" r="2.5" fill="#5b6272"/>
<text x="674" y="740" font-size="14" font-weight="normal" text-anchor="start" fill="#1b1f2a">法人格をキーに残す</text>
<circle cx="662" cy="759" r="2.5" fill="#5b6272"/>
<text x="674" y="764" font-size="14" font-weight="normal" text-anchor="start" fill="#1b1f2a">理由コード 法人格が違う</text>
<text x="172" y="939.0" font-size="15" font-weight="bold" text-anchor="end" fill="#1b1f2a">番号あり・名前が違う</text>
<rect x="190" y="852" width="430" height="164" rx="14" fill="#fff1e8" stroke="#f5c9ae" stroke-width="1" filter="url(#shadow)"/>
<text x="212" y="888" font-size="17" font-weight="bold" text-anchor="start" fill="#1b1f2a">外れる</text>
<circle cx="216" cy="915" r="2.5" fill="#c2410c"/>
<text x="228" y="920" font-size="14" font-weight="normal" text-anchor="start" fill="#1b1f2a">屋号がカナ表記に変わると当たらない</text>
<circle cx="216" cy="939" r="2.5" fill="#c2410c"/>
<text x="228" y="944" font-size="14" font-weight="normal" text-anchor="start" fill="#1b1f2a">似ている別の会社に寄ることもある</text>
<rect x="636" y="852" width="430" height="164" rx="14" fill="#e7ecfb" stroke="#c4d0f6" stroke-width="1" filter="url(#shadow)"/>
<text x="658" y="888" font-size="17" font-weight="bold" text-anchor="start" fill="#1b1f2a">番号の経路で突合</text>
<circle cx="662" cy="915" r="2.5" fill="#3b5bdb"/>
<text x="674" y="920" font-size="14" font-weight="normal" text-anchor="start" fill="#1b1f2a">検査数字が通れば名前を見ない</text>
<circle cx="662" cy="939" r="2.5" fill="#3b5bdb"/>
<text x="674" y="944" font-size="14" font-weight="normal" text-anchor="start" fill="#1b1f2a">合成 1,000 行のうち 300 件</text>
<text x="172" y="1119.0" font-size="15" font-weight="bold" text-anchor="end" fill="#1b1f2a">番号の桁が壊れている</text>
<rect x="190" y="1032" width="430" height="164" rx="14" fill="#fff1e8" stroke="#f5c9ae" stroke-width="1" filter="url(#shadow)"/>
<text x="212" y="1068" font-size="17" font-weight="bold" text-anchor="start" fill="#1b1f2a">名前で救ってしまう</text>
<circle cx="216" cy="1095" r="2.5" fill="#c2410c"/>
<text x="228" y="1100" font-size="14" font-weight="normal" text-anchor="start" fill="#1b1f2a">番号列は見ていないことが多い</text>
<circle cx="216" cy="1119" r="2.5" fill="#c2410c"/>
<text x="228" y="1124" font-size="14" font-weight="normal" text-anchor="start" fill="#1b1f2a">壊れた番号が下流へ流れる</text>
<rect x="636" y="1032" width="430" height="164" rx="14" fill="#eef0f5" stroke="#d9dce6" stroke-width="1" filter="url(#shadow)"/>
<text x="658" y="1068" font-size="17" font-weight="bold" text-anchor="start" fill="#1b1f2a">3 段目で止まる</text>
<circle cx="662" cy="1095" r="2.5" fill="#5b6272"/>
<text x="674" y="1100" font-size="14" font-weight="normal" text-anchor="start" fill="#1b1f2a">検査に落ちた行は名前で救わない</text>
<circle cx="662" cy="1119" r="2.5" fill="#5b6272"/>
<text x="674" y="1124" font-size="14" font-weight="normal" text-anchor="start" fill="#1b1f2a">理由コード 番号の検査に落ちる</text>
<text x="172" y="1299.0" font-size="15" font-weight="bold" text-anchor="end" fill="#1b1f2a">同じ屋号・同じ法人格の別法人</text>
<rect x="190" y="1212" width="430" height="164" rx="14" fill="#fff1e8" stroke="#f5c9ae" stroke-width="1" filter="url(#shadow)"/>
<text x="212" y="1248" font-size="17" font-weight="bold" text-anchor="start" fill="#1b1f2a">黙って当たる</text>
<circle cx="216" cy="1275" r="2.5" fill="#c2410c"/>
<text x="228" y="1280" font-size="14" font-weight="normal" text-anchor="start" fill="#1b1f2a">同じ屋号の別法人が 1 件だけ残ると一致する</text>
<circle cx="216" cy="1299" r="2.5" fill="#c2410c"/>
<text x="228" y="1304" font-size="14" font-weight="normal" text-anchor="start" fill="#1b1f2a">台帳を見ても区別が付かない</text>
<rect x="636" y="1212" width="430" height="164" rx="14" fill="#eef0f5" stroke="#d9dce6" stroke-width="1" filter="url(#shadow)"/>
<text x="658" y="1248" font-size="17" font-weight="bold" text-anchor="start" fill="#1b1f2a">4 段目で止まる</text>
<circle cx="662" cy="1275" r="2.5" fill="#5b6272"/>
<text x="674" y="1280" font-size="14" font-weight="normal" text-anchor="start" fill="#1b1f2a">自分側が重複 / 相手が複数</text>
<circle cx="662" cy="1299" r="2.5" fill="#5b6272"/>
<text x="674" y="1304" font-size="14" font-weight="normal" text-anchor="start" fill="#1b1f2a">キーが 1 社を指さないので決めない</text>
<text x="172" y="1479.0" font-size="15" font-weight="bold" text-anchor="end" fill="#1b1f2a">相手が台帳に無い</text>
<rect x="190" y="1392" width="430" height="164" rx="14" fill="#fff1e8" stroke="#f5c9ae" stroke-width="1" filter="url(#shadow)"/>
<text x="212" y="1428" font-size="17" font-weight="bold" text-anchor="start" fill="#1b1f2a">近い行に寄る</text>
<circle cx="216" cy="1455" r="2.5" fill="#c2410c"/>
<text x="228" y="1460" font-size="14" font-weight="normal" text-anchor="start" fill="#1b1f2a">一番似ている行が採用される</text>
<circle cx="216" cy="1479" r="2.5" fill="#c2410c"/>
<text x="228" y="1484" font-size="14" font-weight="normal" text-anchor="start" fill="#1b1f2a">未登録なのか別法人なのか残らない</text>
<rect x="636" y="1392" width="430" height="164" rx="14" fill="#eef0f5" stroke="#d9dce6" stroke-width="1" filter="url(#shadow)"/>
<text x="658" y="1428" font-size="17" font-weight="bold" text-anchor="start" fill="#1b1f2a">判断待ちに落ちる</text>
<circle cx="662" cy="1455" r="2.5" fill="#5b6272"/>
<text x="674" y="1460" font-size="14" font-weight="normal" text-anchor="start" fill="#1b1f2a">理由コード 相手なし</text>
<circle cx="662" cy="1479" r="2.5" fill="#5b6272"/>
<text x="674" y="1484" font-size="14" font-weight="normal" text-anchor="start" fill="#1b1f2a">別表記・未登録・別法人の区別は人が見る</text>
<rect x="190" y="1582" width="18" height="14" rx="4" fill="#e7ecfb" stroke="#c4d0f6"/>
<text x="216" y="1594" font-size="13" font-weight="normal" text-anchor="start" fill="#5b6272">決定論で寄る / 番号で突合(機械が決める)</text>
<rect x="552" y="1582" width="18" height="14" rx="4" fill="#fff1e8" stroke="#f5c9ae"/>
<text x="578" y="1594" font-size="13" font-weight="normal" text-anchor="start" fill="#5b6272">外れる / 黙って畳む(誤った結合)</text>
<rect x="858" y="1582" width="18" height="14" rx="4" fill="#eef0f5" stroke="#d9dce6"/>
<text x="884" y="1594" font-size="13" font-weight="normal" text-anchor="start" fill="#5b6272">判断待ちとして人に返す</text>
</svg>