<svg xmlns="http://www.w3.org/2000/svg" width="1912" height="426" viewBox="0 0 1912 426" font-family="'BIZ UDPGothic', 'Yu Gothic UI', 'Meiryo UI', sans-serif">
<defs><filter id="shadow" x="-5%" y="-5%" width="110%" height="120%"><feGaussianBlur in="SourceAlpha" stdDeviation="3" result="blur"/><feOffset in="blur" dx="0" dy="2" result="off"/><feFlood flood-color="#1b1f2a" flood-opacity="0.10" result="col"/><feComposite in="col" in2="off" operator="in" result="sh"/><feMerge><feMergeNode in="sh"/><feMergeNode in="SourceGraphic"/></feMerge></filter><marker id="arrow" markerWidth="8" markerHeight="8" refX="7" refY="4" orient="auto" markerUnits="userSpaceOnUse"><path d="M0,0.5 L7,4 L0,7.5" fill="none" stroke="#5b6272" stroke-width="1.6" stroke-linecap="round" stroke-linejoin="round"/></marker></defs>
<rect width="1912" height="426" fill="#f5f6fa"/>
<text x="36" y="48" font-size="24" font-weight="bold" fill="#1b1f2a">台帳を作る流れ — 宣言表を読む → 出典と名前を見る → 構文木として読む → 4 値に分ける</text>
<text x="36" y="74" font-size="14" fill="#5b6272">橙のピルが関所。宣言の自然文から種類を決める経路・対象を実行する経路・読めなかった行を「宣言どおり」に寄せる経路・ソースや宣言表を直す経路・一致しない行に言葉を足す経路はこの図に無い(関数にも CLI にも引数が無い)</text>
<rect x="36" y="118" width="260" height="172" rx="14" fill="#ffffff" stroke="#d9dce6" stroke-width="1" filter="url(#shadow)"/>
<rect x="36" y="118" width="260" height="6" rx="3" fill="#e7ecfb"/>
<circle cx="62" cy="152" r="14" fill="#3b5bdb"/>
<text x="62" y="157" font-size="14" font-weight="bold" text-anchor="middle" fill="#ffffff">1</text>
<text x="84" y="158" font-size="17" font-weight="bold" text-anchor="start" fill="#1b1f2a">宣言表を読む</text>
<circle cx="60" cy="189" r="2.5" fill="#3b5bdb"/>
<text x="72" y="194" font-size="14" font-weight="normal" text-anchor="start" fill="#1b1f2a">1 行 = 1 つの線の宣言</text>
<circle cx="60" cy="213" r="2.5" fill="#3b5bdb"/>
<text x="72" y="218" font-size="14" font-weight="normal" text-anchor="start" fill="#1b1f2a">宣言の verbatim を持つ</text>
<circle cx="60" cy="237" r="2.5" fill="#3b5bdb"/>
<text x="72" y="242" font-size="14" font-weight="normal" text-anchor="start" fill="#1b1f2a">空欄は「宣言が無い」</text>
<circle cx="60" cy="261" r="2.5" fill="#3b5bdb"/>
<text x="72" y="266" font-size="14" font-weight="normal" text-anchor="start" fill="#1b1f2a">フォルダを見に行かない</text>
<line x1="304" y1="204.0" x2="344" y2="204.0" stroke="#5b6272" stroke-width="1.6" stroke-linecap="round" marker-end="url(#arrow)"/>
<rect x="352" y="118" width="260" height="172" rx="14" fill="#ffffff" stroke="#d9dce6" stroke-width="1" filter="url(#shadow)"/>
<rect x="352" y="118" width="260" height="6" rx="3" fill="#d6def9"/>
<circle cx="378" cy="152" r="14" fill="#3b5bdb"/>
<text x="378" y="157" font-size="14" font-weight="bold" text-anchor="middle" fill="#ffffff">2</text>
<text x="400" y="158" font-size="17" font-weight="bold" text-anchor="start" fill="#1b1f2a">出典と名前を見る</text>
<circle cx="376" cy="189" r="2.5" fill="#3b5bdb"/>
<text x="388" y="194" font-size="14" font-weight="normal" text-anchor="start" fill="#1b1f2a">出典が書かれているか</text>
<circle cx="376" cy="213" r="2.5" fill="#3b5bdb"/>
<text x="388" y="218" font-size="14" font-weight="normal" text-anchor="start" fill="#1b1f2a">誰の宣言か辿れるか</text>
<circle cx="376" cy="237" r="2.5" fill="#3b5bdb"/>
<text x="388" y="242" font-size="14" font-weight="normal" text-anchor="start" fill="#1b1f2a">道具名 + 線の名前が 1 件か</text>
<circle cx="376" cy="261" r="2.5" fill="#3b5bdb"/>
<text x="388" y="266" font-size="14" font-weight="normal" text-anchor="start" fill="#1b1f2a">近い行で埋めない</text>
<line x1="620" y1="204.0" x2="660" y2="204.0" stroke="#5b6272" stroke-width="1.6" stroke-linecap="round" marker-end="url(#arrow)"/>
<rect x="668" y="118" width="260" height="172" rx="14" fill="#ffffff" stroke="#d9dce6" stroke-width="1" filter="url(#shadow)"/>
<rect x="668" y="118" width="260" height="6" rx="3" fill="#c4d0f6"/>
<circle cx="694" cy="152" r="14" fill="#3b5bdb"/>
<text x="694" y="157" font-size="14" font-weight="bold" text-anchor="middle" fill="#ffffff">3</text>
<text x="716" y="158" font-size="17" font-weight="bold" text-anchor="start" fill="#1b1f2a">種類と名指しを見る</text>
<circle cx="692" cy="189" r="2.5" fill="#3b5bdb"/>
<text x="704" y="194" font-size="14" font-weight="normal" text-anchor="start" fill="#1b1f2a">種類が 5 種のどれか</text>
<circle cx="692" cy="213" r="2.5" fill="#3b5bdb"/>
<text x="704" y="218" font-size="14" font-weight="normal" text-anchor="start" fill="#1b1f2a">名指しの対象が在るか</text>
<circle cx="692" cy="237" r="2.5" fill="#3b5bdb"/>
<text x="704" y="242" font-size="14" font-weight="normal" text-anchor="start" fill="#1b1f2a">文から種類を推測しない</text>
<circle cx="692" cy="261" r="2.5" fill="#3b5bdb"/>
<text x="704" y="266" font-size="14" font-weight="normal" text-anchor="start" fill="#1b1f2a">種類が空なら読めない行へ</text>
<line x1="936" y1="204.0" x2="976" y2="204.0" stroke="#5b6272" stroke-width="1.6" stroke-linecap="round" marker-end="url(#arrow)"/>
<rect x="984" y="118" width="260" height="172" rx="14" fill="#ffffff" stroke="#d9dce6" stroke-width="1" filter="url(#shadow)"/>
<rect x="984" y="118" width="260" height="6" rx="3" fill="#b0c1f2"/>
<circle cx="1010" cy="152" r="14" fill="#3b5bdb"/>
<text x="1010" y="157" font-size="14" font-weight="bold" text-anchor="middle" fill="#ffffff">4</text>
<text x="1032" y="158" font-size="17" font-weight="bold" text-anchor="start" fill="#1b1f2a">構文木として読む</text>
<circle cx="1008" cy="189" r="2.5" fill="#3b5bdb"/>
<text x="1020" y="194" font-size="14" font-weight="normal" text-anchor="start" fill="#1b1f2a">実行しない</text>
<circle cx="1008" cy="213" r="2.5" fill="#3b5bdb"/>
<text x="1020" y="218" font-size="14" font-weight="normal" text-anchor="start" fill="#1b1f2a">import もしない</text>
<circle cx="1008" cy="237" r="2.5" fill="#3b5bdb"/>
<text x="1020" y="242" font-size="14" font-weight="normal" text-anchor="start" fill="#1b1f2a">読むのは構文だけ</text>
<circle cx="1008" cy="261" r="2.5" fill="#3b5bdb"/>
<text x="1020" y="266" font-size="14" font-weight="normal" text-anchor="start" fill="#1b1f2a">外へは取りに行かない</text>
<line x1="1252" y1="204.0" x2="1292" y2="204.0" stroke="#5b6272" stroke-width="1.6" stroke-linecap="round" marker-end="url(#arrow)"/>
<rect x="1300" y="118" width="260" height="172" rx="14" fill="#ffffff" stroke="#d9dce6" stroke-width="1" filter="url(#shadow)"/>
<rect x="1300" y="118" width="260" height="6" rx="3" fill="#9cb1ee"/>
<circle cx="1326" cy="152" r="14" fill="#3b5bdb"/>
<text x="1326" y="157" font-size="14" font-weight="bold" text-anchor="middle" fill="#ffffff">5</text>
<text x="1348" y="158" font-size="17" font-weight="bold" text-anchor="start" fill="#1b1f2a">4 値に分ける</text>
<circle cx="1324" cy="189" r="2.5" fill="#3b5bdb"/>
<text x="1336" y="194" font-size="14" font-weight="normal" text-anchor="start" fill="#1b1f2a">現れたか現れないか</text>
<circle cx="1324" cy="213" r="2.5" fill="#3b5bdb"/>
<text x="1336" y="218" font-size="14" font-weight="normal" text-anchor="start" fill="#1b1f2a">追えない形は別の箱</text>
<circle cx="1324" cy="237" r="2.5" fill="#3b5bdb"/>
<text x="1336" y="242" font-size="14" font-weight="normal" text-anchor="start" fill="#1b1f2a">行番号と宣言だけ出す</text>
<circle cx="1324" cy="261" r="2.5" fill="#3b5bdb"/>
<text x="1336" y="266" font-size="14" font-weight="normal" text-anchor="start" fill="#1b1f2a">言葉を足さない</text>
<line x1="1568" y1="204.0" x2="1608" y2="204.0" stroke="#5b6272" stroke-width="1.6" stroke-linecap="round" marker-end="url(#arrow)"/>
<rect x="1616" y="118" width="260" height="172" rx="14" fill="#ffffff" stroke="#d9dce6" stroke-width="1" filter="url(#shadow)"/>
<rect x="1616" y="118" width="260" height="6" rx="3" fill="#9cb1ee"/>
<circle cx="1642" cy="152" r="14" fill="#3b5bdb"/>
<text x="1642" y="157" font-size="14" font-weight="bold" text-anchor="middle" fill="#ffffff">6</text>
<text x="1664" y="158" font-size="17" font-weight="bold" text-anchor="start" fill="#1b1f2a">2 回判定して返す</text>
<circle cx="1640" cy="189" r="2.5" fill="#3b5bdb"/>
<text x="1652" y="194" font-size="14" font-weight="normal" text-anchor="start" fill="#1b1f2a">件数と分母の内訳</text>
<circle cx="1640" cy="213" r="2.5" fill="#3b5bdb"/>
<text x="1652" y="218" font-size="14" font-weight="normal" text-anchor="start" fill="#1b1f2a">遵守率は単独で返さない</text>
<circle cx="1640" cy="237" r="2.5" fill="#3b5bdb"/>
<text x="1652" y="242" font-size="14" font-weight="normal" text-anchor="start" fill="#1b1f2a">判定部分の sha256 を突合</text>
<circle cx="1640" cy="261" r="2.5" fill="#3b5bdb"/>
<text x="1652" y="266" font-size="14" font-weight="normal" text-anchor="start" fill="#1b1f2a">時刻とパスは判定の外</text>
<line x1="324.0" y1="292" x2="324.0" y2="308" stroke="#c2410c" stroke-width="1.2" stroke-dasharray="3 4" stroke-linecap="round"/>
<rect x="266.775" y="310" width="114.45" height="28" rx="14" fill="#fff1e8" stroke="#c2410c" stroke-width="1"/>
<text x="324.0" y="329" font-size="13" text-anchor="middle" fill="#c2410c">必要な列が無い</text>
<line x1="640.0" y1="292" x2="640.0" y2="308" stroke="#c2410c" stroke-width="1.2" stroke-dasharray="3 4" stroke-linecap="round"/>
<rect x="551.9" y="310" width="176.2" height="28" rx="14" fill="#fff1e8" stroke="#c2410c" stroke-width="1"/>
<text x="640.0" y="329" font-size="13" text-anchor="middle" fill="#c2410c">出典が空 / 名前の重複</text>
<line x1="956.0" y1="292" x2="956.0" y2="308" stroke="#c2410c" stroke-width="1.2" stroke-dasharray="3 4" stroke-linecap="round"/>
<rect x="787.625" y="310" width="336.75" height="28" rx="14" fill="#fff1e8" stroke="#c2410c" stroke-width="1"/>
<text x="956.0" y="329" font-size="13" text-anchor="middle" fill="#c2410c">種類が 5 種の外 / 名指しが空 / パスが無い</text>
<line x1="1272.0" y1="292" x2="1272.0" y2="308" stroke="#c2410c" stroke-width="1.2" stroke-dasharray="3 4" stroke-linecap="round"/>
<rect x="1128.325" y="310" width="287.34999999999997" height="28" rx="14" fill="#fff1e8" stroke="#c2410c" stroke-width="1"/>
<text x="1272.0" y="329" font-size="13" text-anchor="middle" fill="#c2410c">python でない / 構文解析できない</text>
<line x1="1588.0" y1="292" x2="1588.0" y2="308" stroke="#c2410c" stroke-width="1.2" stroke-dasharray="3 4" stroke-linecap="round"/>
<rect x="1493.725" y="310" width="188.54999999999998" height="28" rx="14" fill="#fff1e8" stroke="#c2410c" stroke-width="1"/>
<text x="1588.0" y="329" font-size="13" text-anchor="middle" fill="#c2410c">2 回目の判定部分が不一致</text>
<text x="36" y="396" font-size="13" font-weight="normal" text-anchor="start" fill="#5b6272">前の段で止まったら 1 行も判定しない。止まったときは台帳が 1 行も返らず、理由コード 6 個のどれかだけが返る。判定したことは「名指しされた経路が静的に現れないか」までで、道具が宣言どおり振る舞うことも、宣言が十分かも、書かれていない線の良し悪しも判定しない。</text>
</svg>